<?xml version="1.0" encoding="UTF-8" standalone="no"?>
<svg
   xmlns:dc="http://purl.org/dc/elements/1.1/"
   xmlns:cc="http://creativecommons.org/ns#"
   xmlns:rdf="http://www.w3.org/1999/02/22-rdf-syntax-ns#"
   xmlns:svg="http://www.w3.org/2000/svg"
   xmlns="http://www.w3.org/2000/svg"
   xmlns:xlink="http://www.w3.org/1999/xlink"
   xmlns:sodipodi="http://sodipodi.sourceforge.net/DTD/sodipodi-0.dtd"
   xmlns:inkscape="http://www.inkscape.org/namespaces/inkscape"
   id="Layer_1"
   data-name="Layer 1"
   viewBox="0 0 256 256"
   version="1.1"
   sodipodi:docname="icon.svg"
   inkscape:version="0.92.4 (f8dce91, 2019-08-02)">
  <metadata
     id="metadata18">
    <rdf:RDF>
      <cc:Work
         rdf:about="">
        <dc:format>image/svg+xml</dc:format>
        <dc:type
           rdf:resource="http://purl.org/dc/dcmitype/StillImage" />
        <dc:title>elementor-gradient-256px</dc:title>
      </cc:Work>
    </rdf:RDF>
  </metadata>
  <sodipodi:namedview
     pagecolor="#ffffff"
     bordercolor="#666666"
     borderopacity="1"
     objecttolerance="10"
     gridtolerance="10"
     guidetolerance="10"
     inkscape:pageopacity="0"
     inkscape:pageshadow="2"
     inkscape:window-width="1221"
     inkscape:window-height="969"
     id="namedview16"
     showgrid="false"
     inkscape:zoom="0.921875"
     inkscape:cx="-48.813559"
     inkscape:cy="128"
     inkscape:window-x="59"
     inkscape:window-y="27"
     inkscape:window-maximized="1"
     inkscape:current-layer="Layer_1" />
  <defs
     id="defs9">
    <style
       id="style2">.cls-1{fill:url(#linear-gradient);}</style>
    <linearGradient
       id="linear-gradient"
       x1="3.74"
       y1="252.26"
       x2="252.26"
       y2="3.74"
       gradientUnits="userSpaceOnUse">
      <stop
         offset="0"
         stop-color="#2e2975"
         id="stop4"
         style="stop-color:#ff0075;stop-opacity:1" />
      <stop
         offset="1"
         stop-color="#f2295b"
         id="stop6"
         style="stop-color:#f2ff00;stop-opacity:1" />
    </linearGradient>
    <linearGradient
       inkscape:collect="always"
       xlink:href="#linear-gradient"
       id="linearGradient4702"
       x1="32.542374"
       y1="49.898304"
       x2="242.98305"
       y2="245.15254"
       gradientUnits="userSpaceOnUse"
       spreadMethod="pad" />
  </defs>
  <title
     id="title11">elementor-gradient-256px</title>
  <path
     class="cls-1"
     d="M 243.24,0 H 12.76 C 5.7128466,0 0,5.7128466 0,12.76 V 243.24 C 0,250.28715 5.7128466,256 12.76,256 h 230.48 c 7.04715,0 12.76,-5.71285 12.76,-12.76 V 12.76 C 256,5.7128466 250.28715,0 243.24,0 Z"
     id="path13"
     inkscape:connector-curvature="0"
     style="fill:url(#linearGradient4702);fill-opacity:1"
     sodipodi:nodetypes="sssssssss" />
  <path
     inkscape:connector-curvature="0"
     style="fill:#333333;stroke-width:0.34689265"
     d="m 135.22839,99.536722 c -7.0003,0 -37.05507,0.686848 -56.401276,29.815418 V 99.536722 c 0,-18.3645 -14.9372,-33.30169 -33.30169,-33.30169 -6.1296,0 -11.10057,4.97097 -11.10057,11.10056 0,6.12959 4.97097,11.10057 11.10057,11.10057 6.11918,0 11.10056,4.98137 11.10056,11.10056 v 88.804518 c 0,12.24531 9.95582,22.20113 22.20113,22.20113 h 61.053106 c 3.06653,0 5.55028,-2.48375 5.55028,-5.55028 v -5.55028 c 0,-6.1296 -4.97097,-11.10057 -11.10056,-11.10057 h -11.10057 l 44.40226,-33.30169 v 49.95254 c 0,3.06653 2.48375,5.55028 5.55028,5.55028 h 11.10057 c 3.06653,0 5.55028,-2.48375 5.55028,-5.55028 v -71.50845 c -3.56953,0.9262 -7.24659,1.57489 -11.10056,1.57489 -21.44144,0 -39.37926,-15.28062 -43.50381,-35.521808 z m 54.60437,-33.30169 H 167.63163 L 145.4305,44.033902 v 46.62237 c 0,18.392248 14.90945,33.301688 33.3017,33.301688 18.39224,0 33.30169,-14.90944 33.30169,-33.301688 v -46.62237 z m -24.97627,27.75141 c -3.06653,0 -5.55028,-2.48375 -5.55028,-5.55028 0,-3.06653 2.48375,-5.55029 5.55028,-5.55029 3.06653,0 5.55028,2.48376 5.55028,5.55029 0,3.06653 -2.48375,5.55028 -5.55028,5.55028 z m 27.75141,0 c -3.06653,0 -5.55028,-2.48375 -5.55028,-5.55028 0,-3.06653 2.48375,-5.55029 5.55028,-5.55029 3.06653,0 5.55028,2.48376 5.55028,5.55029 0,3.06653 -2.48375,5.55028 -5.55028,5.55028 z"
     id="path3864" />
</svg>
